<svg xmlns="http://www.w3.org/2000/svg" version="1.1" xmlns:xlink="http://www.w3.org/1999/xlink" xmlns:svgjs="http://svgjs.dev/svgjs" width="2000" height="959" viewBox="0 0 2000 959"><g transform="matrix(1,0,0,1,-1.212032306461424,-1.008120700077427)"><svg viewBox="0 0 396 190" data-background-color="#b19dd0" preserveAspectRatio="xMidYMid meet" height="959" width="2000" xmlns="http://www.w3.org/2000/svg" xmlns:xlink="http://www.w3.org/1999/xlink"><defs></defs><g id="tight-bounds" transform="matrix(1,0,0,1,0.23998239667935195,0.1997319426639308)"><svg viewBox="0 0 395.52 189.60053507466586" height="189.60053507466586" width="395.52"><g><svg viewBox="0 0 395.52 189.60053507466586" height="189.60053507466586" width="395.52"><g transform="matrix(1,0,0,1,0,141.07214631023368)"><svg viewBox="0 0 395.52 48.52838876443219" height="48.52838876443219" width="395.52"><g><svg viewBox="0 0 395.52 48.52838876443219" height="48.52838876443219" width="395.52"><g><svg viewBox="0 0 395.52 48.52838876443219" height="48.52838876443219" width="395.52"><g transform="matrix(1,0,0,1,0,0)"><svg width="395.52" viewBox="5.699999809265137 -35.29999923706055 290.1299743652344 35.599998474121094" height="48.52838876443219" data-palette-color="#000000"><path d="M29.7-31.8L9.4-31.8 9.4-18.05 27.5-18.05 27.5-14.85 9.4-14.85 9.4 0 5.7 0 5.7-35 29.7-35 29.7-31.8ZM37.35 0L37.35-35 41.05-35 41.05 0 37.35 0ZM52.45 0L52.45-35 56.15-35 56.15-3.2 75.75-3.2 75.75 0 52.45 0ZM115.19-35L118.24-35 118.24 0 114.69 0 114.69-28 100.94-4.45 99.19-4.45 85.44-27.85 85.44 0 81.89 0 81.89-35 84.94-35 100.14-9.05 115.19-35ZM157.94 0.3Q152.74 0.3 148.56-2 144.39-4.3 142.01-8.38 139.64-12.45 139.64-17.5L139.64-17.5Q139.64-22.55 142.01-26.63 144.39-30.7 148.59-33 152.79-35.3 157.99-35.3L157.99-35.3Q161.89-35.3 165.19-34 168.49-32.7 170.79-30.2L170.79-30.2 168.44-27.85Q164.34-32 158.09-32L158.09-32Q153.94-32 150.54-30.1 147.14-28.2 145.21-24.9 143.29-21.6 143.29-17.5L143.29-17.5Q143.29-13.4 145.21-10.1 147.14-6.8 150.54-4.9 153.94-3 158.09-3L158.09-3Q164.39-3 168.44-7.2L168.44-7.2 170.79-4.85Q168.49-2.35 165.16-1.03 161.84 0.3 157.94 0.3L157.94 0.3ZM206.64 0L202.59 0 194.59-11.25Q193.24-11.1 191.79-11.1L191.79-11.1 182.39-11.1 182.39 0 178.69 0 178.69-35 191.79-35Q198.49-35 202.29-31.8 206.09-28.6 206.09-23L206.09-23Q206.09-18.9 204.01-16.07 201.94-13.25 198.09-12L198.09-12 206.64 0ZM191.69-14.25Q196.89-14.25 199.64-16.55 202.39-18.85 202.39-23L202.39-23Q202.39-27.25 199.64-29.53 196.89-31.8 191.69-31.8L191.69-31.8 182.39-31.8 182.39-14.25 191.69-14.25ZM218.53-3.2L239.58-3.2 239.58 0 214.83 0 214.83-35 238.83-35 238.83-31.8 218.53-31.8 218.53-19.35 236.63-19.35 236.63-16.2 218.53-16.2 218.53-3.2ZM292.28-35L295.83-35 284.03 0 280.13 0 269.88-29.85 259.58 0 255.73 0 243.93-35 247.73-35 257.83-4.9 268.28-35 271.73-35 282.03-4.75 292.28-35Z" opacity="1" transform="matrix(1,0,0,1,0,0)" fill="#000000" class="undefined-text-0" data-fill-palette-color="primary" id="text-0"></path></svg></g></svg></g></svg></g></svg></g><g transform="matrix(1,0,0,1,138.68031475083524,0)"><svg viewBox="0 0 118.1593704983295 118.1593704983295" height="118.1593704983295" width="118.1593704983295"><g><svg></svg></g><g id="icon-0"><svg viewBox="0 0 118.1593704983295 118.1593704983295" height="118.1593704983295" width="118.1593704983295"><g><path d="M0 59.08c0-32.629 26.451-59.08 59.08-59.08 32.629 0 59.08 26.451 59.079 59.08 0 32.629-26.451 59.08-59.079 59.079-32.629 0-59.08-26.451-59.08-59.079zM59.08 113.783c30.212 0 54.703-24.492 54.703-54.703 0-30.212-24.492-54.703-54.703-54.704-30.212 0-54.703 24.492-54.704 54.704 0 30.212 24.492 54.703 54.704 54.703z" data-fill-palette-color="tertiary" fill="#000000" stroke="transparent"></path></g><g transform="matrix(1,0,0,1,24.89038013552095,43.05379018238789)"><svg viewBox="0 0 68.3786102272876 32.05179013355371" height="32.05179013355371" width="68.3786102272876"><g><svg xmlns="http://www.w3.org/2000/svg" xmlns:xlink="http://www.w3.org/1999/xlink" version="1.0" x="0" y="0" viewBox="0 0 100 46.874000549316406" enable-background="new 0 0 100 46.875" xml:space="preserve" width="68.3786102272876" height="32.05179013355371" class="icon-x-0" data-fill-palette-color="accent" id="x-0"><g fill="#000000" data-fill-palette-color="accent"><path d="M100 7.812V0H0v3.906 3.906 31.25 3.906 3.906h100v-7.812H53.125V7.812H100zM95.156 2.37c0-0.446 0.361-0.808 0.808-0.808h3.071c0.445 0 0.808 0.362 0.808 0.808v3.071c0 0.446-0.362 0.808-0.808 0.808h-3.071c-0.446 0-0.808-0.362-0.808-0.808V2.37zM86.719 2.37c0-0.446 0.362-0.808 0.809-0.808h3.07c0.446 0 0.809 0.362 0.809 0.808v3.071c0 0.446-0.362 0.808-0.809 0.808h-3.07c-0.446 0-0.809-0.362-0.809-0.808V2.37zM78.281 2.37c0-0.446 0.361-0.808 0.808-0.808h3.071c0.445 0 0.808 0.362 0.808 0.808v3.071c0 0.446-0.362 0.808-0.808 0.808h-3.071c-0.446 0-0.808-0.362-0.808-0.808V2.37zM69.844 2.37c0-0.446 0.362-0.808 0.809-0.808h3.07c0.446 0 0.809 0.362 0.809 0.808v3.071c0 0.446-0.362 0.808-0.809 0.808h-3.07c-0.446 0-0.809-0.362-0.809-0.808V2.37zM61.406 2.37c0-0.446 0.361-0.808 0.808-0.808h3.071c0.445 0 0.808 0.362 0.808 0.808v3.071c0 0.446-0.362 0.808-0.808 0.808h-3.071c-0.446 0-0.808-0.362-0.808-0.808V2.37zM45.156 2.37c0-0.446 0.362-0.808 0.808-0.808h3.071c0.446 0 0.808 0.362 0.808 0.808v3.071c0 0.446-0.362 0.808-0.808 0.808h-3.071c-0.446 0-0.808-0.362-0.808-0.808V2.37zM36.719 2.37c0-0.446 0.362-0.808 0.808-0.808h3.071c0.446 0 0.808 0.362 0.808 0.808v3.071c0 0.446-0.362 0.808-0.808 0.808h-3.071c-0.446 0-0.808-0.362-0.808-0.808V2.37zM28.281 2.37c0-0.446 0.362-0.808 0.808-0.808h3.071c0.446 0 0.808 0.362 0.808 0.808v3.071c0 0.446-0.362 0.808-0.808 0.808h-3.071c-0.446 0-0.808-0.362-0.808-0.808V2.37zM19.844 2.37c0-0.446 0.362-0.808 0.808-0.808h3.071c0.446 0 0.808 0.362 0.808 0.808v3.071c0 0.446-0.362 0.808-0.808 0.808h-3.071c-0.446 0-0.808-0.362-0.808-0.808V2.37zM11.406 2.37c0-0.446 0.362-0.808 0.808-0.808h3.071c0.446 0 0.808 0.362 0.808 0.808v3.071c0 0.446-0.362 0.808-0.808 0.808h-3.071c-0.446 0-0.808-0.362-0.808-0.808V2.37zM2.969 2.37c0-0.446 0.362-0.808 0.808-0.808h3.071c0.446 0 0.808 0.362 0.808 0.808v3.071c0 0.446-0.362 0.808-0.808 0.808H3.777c-0.446 0-0.808-0.362-0.808-0.808V2.37zM7.656 44.504c0 0.447-0.362 0.809-0.808 0.809H3.777c-0.446 0-0.808-0.361-0.808-0.809v-3.07c0-0.447 0.362-0.809 0.808-0.809h3.071c0.446 0 0.808 0.361 0.808 0.809V44.504zM16.094 44.504c0 0.447-0.362 0.809-0.808 0.809h-3.071c-0.446 0-0.808-0.361-0.808-0.809v-3.07c0-0.447 0.362-0.809 0.808-0.809h3.071c0.446 0 0.808 0.361 0.808 0.809V44.504zM24.531 44.504c0 0.447-0.362 0.809-0.808 0.809h-3.071c-0.446 0-0.808-0.361-0.808-0.809v-3.07c0-0.447 0.362-0.809 0.808-0.809h3.071c0.446 0 0.808 0.361 0.808 0.809V44.504zM32.969 44.504c0 0.447-0.362 0.809-0.808 0.809H29.09c-0.446 0-0.808-0.361-0.808-0.809v-3.07c0-0.447 0.362-0.809 0.808-0.809h3.071c0.446 0 0.808 0.361 0.808 0.809V44.504zM41.406 44.504c0 0.447-0.362 0.809-0.808 0.809h-3.071c-0.446 0-0.808-0.361-0.808-0.809v-3.07c0-0.447 0.362-0.809 0.808-0.809h3.071c0.446 0 0.808 0.361 0.808 0.809V44.504zM49.844 44.504c0 0.447-0.362 0.809-0.808 0.809h-3.071c-0.446 0-0.808-0.361-0.808-0.809v-3.07c0-0.447 0.362-0.809 0.808-0.809h3.071c0.446 0 0.808 0.361 0.808 0.809V44.504zM50 39.062H3.125V7.812H50V39.062zM95.156 41.434c0-0.447 0.361-0.809 0.808-0.809h3.071c0.445 0 0.808 0.361 0.808 0.809v3.07c0 0.447-0.362 0.809-0.808 0.809h-3.071c-0.446 0-0.808-0.361-0.808-0.809V41.434zM86.719 41.434c0-0.447 0.362-0.809 0.809-0.809h3.07c0.446 0 0.809 0.361 0.809 0.809v3.07c0 0.447-0.362 0.809-0.809 0.809h-3.07c-0.446 0-0.809-0.361-0.809-0.809V41.434zM78.281 41.434c0-0.447 0.361-0.809 0.808-0.809h3.071c0.445 0 0.808 0.361 0.808 0.809v3.07c0 0.447-0.362 0.809-0.808 0.809h-3.071c-0.446 0-0.808-0.361-0.808-0.809V41.434zM69.844 41.434c0-0.447 0.362-0.809 0.809-0.809h3.07c0.446 0 0.809 0.361 0.809 0.809v3.07c0 0.447-0.362 0.809-0.809 0.809h-3.07c-0.446 0-0.809-0.361-0.809-0.809V41.434zM61.406 41.434c0-0.447 0.361-0.809 0.808-0.809h3.071c0.445 0 0.808 0.361 0.808 0.809v3.07c0 0.447-0.362 0.809-0.808 0.809h-3.071c-0.446 0-0.808-0.361-0.808-0.809V41.434zM53.777 40.625h3.07c0.446 0 0.809 0.361 0.809 0.807v3.072c0 0.445-0.362 0.807-0.809 0.807h-3.07c-0.446 0-0.809-0.361-0.809-0.807v-3.072C52.969 40.986 53.331 40.625 53.777 40.625zM52.969 5.441V2.37c0-0.446 0.362-0.808 0.809-0.808h3.07c0.446 0 0.809 0.362 0.809 0.808v3.071c0 0.446-0.362 0.808-0.809 0.808h-3.07C53.331 6.25 52.969 5.888 52.969 5.441z" fill="#000000" data-fill-palette-color="accent"></path></g></svg></g></svg></g></svg></g></svg></g><g></g></svg></g></svg><rect width="395.52" height="189.60053507466586" fill="none" stroke="none" visibility="hidden"></rect></g></svg></g></svg>